PathFileType	4	(X/Y/Z)	C:/Users/opensim2020/Desktop/walking_exp_matlab/subject01_walking14_straight_02.trc	
DataRate	CameraRate	NumFrames	NumMarkers	Units	OrigDataRate	OrigDataStartFrame	OrigNumFrames	
100.00	100.00	6	42	mm	100.00	1209	125	
Frame#	Time	LFHD			RFHD			LBHD			RBHD			C7			T10			CLAV			STRN			RBAK			LSHO			LUPA			LELB			LFRM			LWRA			LWRB			LFIN			RSHO			RUPA			RELB			RFRM			RWRA			RWRB			RFIN			LASI			RASI			LPSI			RPSI			LTHI			LKNE			LTIB			LANK			LHEE			LTOE			RTHI			RKNE			RTIB			RANK			RHEE			RTOE			*39			*40			*41			
		X1	Y1	Z1	X2	Y2	Z2	X3	Y3	Z3	X4	Y4	Z4	X5	Y5	Z5	X6	Y6	Z6	X7	Y7	Z7	X8	Y8	Z8	X9	Y9	Z9	X10	Y10	Z10	X11	Y11	Z11	X12	Y12	Z12	X13	Y13	Z13	X14	Y14	Z14	X15	Y15	Z15	X16	Y16	Z16	X17	Y17	Z17	X18	Y18	Z18	X19	Y19	Z19	X20	Y20	Z20	X21	Y21	Z21	X22	Y22	Z22	X23	Y23	Z23	X24	Y24	Z24	X25	Y25	Z25	X26	Y26	Z26	X27	Y27	Z27	X28	Y28	Z28	X29	Y29	Z29	X30	Y30	Z30	X31	Y31	Z31	X32	Y32	Z32	X33	Y33	Z33	X34	Y34	Z34	X35	Y35	Z35	X36	Y36	Z36	X37	Y37	Z37	X38	Y38	Z38	X39	Y39	Z39	X40	Y40	Z40	X41	Y41	Z41	X42	Y42	Z42	

63	0.620	-1054.87817	165.09109	1650.15979	-1153.40247	106.41160	1649.99597	-1111.11511	269.92224	1610.45776	-1214.49402	210.52873	1609.30859	-1126.21143	308.27817	1416.79395	-1120.50464	347.35617	1120.38562	-1118.41663	162.79782	1345.84888	-1109.90259	121.89336	1193.61841	-1191.07520	366.43881	1219.22058	-961.03833	230.00853	1384.70251	-861.35040	255.35980	1210.09753	-838.35876	250.45956	1057.99146	-829.16260	143.17627	1006.56006	-863.69751	11.17744	994.17212	-839.30334	37.63861	947.15790	-834.14221	-46.05157	944.33417	-1271.12451	227.90489	1375.12903	-1357.77783	329.20139	1188.34814	-1360.91992	345.51138	1065.97852	-1393.48181	359.79828	949.33923	-1380.01099	325.23596	809.91748	-1414.51184	368.59518	827.62250	-1419.98596	361.12784	741.37006	-1002.59406	176.60571	912.60211	-1216.18884	154.90704	921.85339	-1075.90125	356.34161	926.76880	-1221.67603	339.09714	929.86871	-951.33069	277.68015	584.02771	-959.24548	324.21490	454.86224	-952.34698	472.90836	335.18857	-996.37891	626.37579	176.63918	-1050.63916	669.19507	193.48579	-1008.13184	575.74811	38.07039	-1286.33325	127.58561	602.10870	-1256.82654	64.26165	458.48279	-1268.52588	89.66707	283.06625	-1223.31201	92.50117	75.79253	-1176.28857	141.43690	36.96098	-1215.26941	-48.98455	37.72795	-1137.80042	124.91348	1684.75024	-3102.00708	1973.11963	1023.54742	-3140.66724	2012.51685	1022.01794 
64	0.630	-1056.94128	151.91496	1650.42224	-1155.12390	92.86386	1650.35449	-1113.69910	256.57236	1610.88855	-1216.73120	196.69434	1609.74438	-1128.34827	294.69931	1416.75220	-1122.29480	333.21710	1120.39075	-1120.39893	148.90367	1346.28577	-1111.36536	107.67175	1194.12854	-1193.69751	352.21130	1219.20166	-963.13611	216.79556	1385.01733	-863.86920	243.94557	1210.36060	-840.58679	239.47302	1058.44348	-830.52222	132.93669	1005.25433	-864.49493	0.68287	991.12823	-840.46130	28.07016	944.47003	-834.77612	-55.43957	940.05396	-1273.19287	213.79224	1374.90076	-1360.08997	313.13193	1186.90601	-1362.90991	328.48837	1064.60938	-1395.68115	341.81833	948.16882	-1382.30261	306.40201	808.83020	-1416.94958	349.66290	826.41602	-1422.40137	341.79770	739.98004	-1004.68127	161.97069	912.20563	-1217.81055	140.21822	923.05353	-1076.82507	341.53232	925.96106	-1222.59424	325.00378	930.77197	-951.64838	255.69354	581.82007	-958.69525	299.54190	452.35370	-952.13281	450.95328	336.97903	-994.48480	609.98859	183.47571	-1050.13000	649.80890	203.73470	-1008.75891	571.96655	40.94217	-1287.08276	111.80954	602.91937	-1257.50867	52.70808	457.10028	-1269.27136	81.69826	281.07678	-1222.80188	90.57663	75.17982	-1176.51904	140.84657	37.38618	-1214.68860	-50.48553	36.85732	-1139.64453	110.53947	1685.39124	-3101.98730	1973.19971	1023.51593	-3140.73218	2012.57410	1022.12024 
65	0.640	-1059.01575	138.80864	1650.84473	-1156.94641	79.36592	1650.78809	-1116.12268	243.12985	1611.20850	-1218.84668	182.97038	1610.08447	-1130.48633	281.24167	1416.86609	-1123.90417	319.23041	1120.68713	-1122.09290	135.10011	1346.62012	-1112.62610	94.57088	1194.55872	-1195.81506	338.10046	1219.30371	-965.09259	203.44675	1385.39417	-866.42224	232.47577	1210.70361	-842.76367	228.74155	1059.11816	-832.38287	122.79480	1004.09705	-865.26971	-9.34030	987.63293	-841.60529	19.05729	941.36255	-835.56091	-64.31147	935.08673	-1275.12939	199.50821	1374.93201	-1362.42139	296.72372	1185.80029	-1365.06042	311.27161	1063.58655	-1397.94116	323.42139	947.07227	-1384.46399	286.84857	808.02496	-1419.58813	330.02426	825.40704	-1424.68384	321.56906	738.83594	-1006.87872	147.32922	912.14850	-1219.84192	125.94655	924.54352	-1077.71191	327.19525	925.50873	-1223.27869	310.77280	931.82324	-952.01086	233.30032	579.72839	-958.11633	274.63101	449.95834	-951.54547	428.26266	339.08273	-993.33698	592.55023	190.91029	-1049.07178	629.70081	214.38419	-1008.96808	564.70770	45.93893	-1288.21252	96.81524	603.02026	-1258.09192	42.62454	454.99893	-1269.51855	75.80025	279.55341	-1222.36865	89.49424	74.82721	-1176.23547	140.83704	37.60192	-1214.43225	-51.32671	36.06134	-1141.40698	96.65497	1685.74536	-3101.99121	1973.13599	1023.50775	-3140.70581	2012.55090	1022.09753 
66	0.650	-1060.84363	125.57957	1651.54968	-1158.87756	65.72315	1651.46753	-1118.19189	229.82883	1611.68530	-1220.79065	169.27998	1610.52161	-1132.60754	267.66306	1417.31543	-1125.25928	305.43228	1121.20984	-1123.64941	121.41335	1347.10168	-1113.77075	80.73969	1195.06885	-1197.64319	324.01749	1219.62976	-966.89667	190.08412	1385.85168	-868.63568	221.15181	1211.15259	-844.90564	218.61060	1059.45557	-834.00854	113.21572	1002.70245	-866.03241	-18.99097	983.67145	-842.76587	10.65359	937.88977	-836.27106	-72.41644	929.46411	-1276.89001	185.14110	1375.18860	-1364.79846	279.98859	1185.01636	-1367.25854	293.59982	1062.74280	-1400.36365	304.40518	946.20233	-1386.47974	266.61191	807.42194	-1421.94702	309.64285	824.42615	-1427.01184	300.31302	737.94727	-1008.78149	133.05122	912.34882	-1221.95972	112.08594	925.99097	-1078.55298	313.13742	925.22382	-1223.97839	296.95203	932.97186	-952.44470	210.79288	578.01355	-957.83868	249.07675	447.66440	-951.30823	404.76254	341.14212	-993.15668	573.10736	198.93422	-1047.92700	608.87054	225.24390	-1009.08801	553.94470	52.05246	-1289.32727	83.55170	602.92206	-1259.01880	33.91840	452.86346	-1269.56982	71.54404	278.63654	-1221.98718	88.94755	74.73769	-1176.02649	140.47676	37.98950	-1213.97473	-51.70659	35.64011	-1143.30347	83.44321	1686.19189	-3101.90527	1973.20349	1023.57269	-3140.67236	2012.48083	1021.97266 
67	0.660	-1062.63147	112.14681	1652.36987	-1160.04858	52.37042	1652.10352	-1120.12415	216.32738	1612.36914	-1222.67004	155.59358	1611.21082	-1134.63159	254.02519	1418.12695	-1126.61108	291.87250	1122.01013	-1124.88672	107.82459	1347.69690	-1114.72473	67.20896	1195.73462	-1199.34619	310.00034	1220.25415	-968.46539	176.80815	1386.47632	-870.59430	209.70760	1211.66394	-847.27039	208.41673	1060.04639	-835.60907	104.01765	1001.16388	-866.70642	-28.12478	979.33868	-843.86816	2.79681	934.14044	-837.02197	-80.06007	923.51050	-1278.44873	170.77980	1375.75439	-1367.04272	262.63928	1184.48206	-1369.54651	275.71811	1062.19910	-1402.48877	285.03055	945.38239	-1388.66748	245.40764	807.25769	-1424.20276	288.45654	823.67474	-1429.15149	278.21835	737.45667	-1010.44604	119.15810	912.88501	-1223.90283	98.53859	927.43683	-1079.33936	299.28799	925.20251	-1224.66858	283.36523	934.08740	-953.01520	188.50636	576.72510	-957.88068	223.11792	445.76764	-950.44171	380.52121	343.02539	-993.67993	551.33539	207.25612	-1047.27747	587.04938	235.47211	-1008.95880	539.92035	58.73364	-1290.09583	73.42918	603.13837	-1260.29932	26.65285	451.34567	-1269.99658	68.27681	278.07166	-1221.87891	88.69978	74.78617	-1175.68542	140.38113	38.12550	-1213.99292	-51.85134	35.40918	-1145.10962	70.50656	1686.60278	-3101.95972	1973.19653	1023.51367	-3140.83472	2012.53015	1022.00433 
68	0.670	-1064.07544	98.54224	1653.33704	-1161.50012	38.76397	1653.04956	-1121.60352	202.83730	1613.38330	-1224.07971	141.86089	1612.17932	-1136.49854	240.31361	1419.25073	-1127.93640	278.51965	1123.13696	-1125.95020	94.29961	1348.54370	-1115.51794	53.95171	1196.58191	-1201.08899	296.19800	1221.28040	-969.86072	163.75755	1387.29492	-872.34985	198.05418	1212.32776	-849.71350	198.42589	1060.72998	-837.25854	95.27483	999.49634	-867.41748	-36.88168	974.64301	-844.74561	-4.55487	930.22400	-837.70343	-86.96682	917.21234	-1279.83887	156.44406	1376.60645	-1369.48132	245.41875	1184.48975	-1371.86816	257.67633	1061.98279	-1404.70239	265.24100	944.92505	-1390.23328	223.86877	807.30054	-1426.22656	266.82254	823.21338	-1431.40784	255.08966	737.21808	-1011.69904	105.53767	913.92023	-1225.67126	85.33622	928.96167	-1080.11340	285.81821	925.48596	-1225.42700	270.36816	935.26831	-953.67963	166.40199	576.11206	-958.10376	197.32011	444.39127	-949.85156	355.72733	344.89270	-994.65869	529.78174	215.54953	-1048.42627	563.95483	244.08920	-1007.98047	523.11530	65.38390	-1290.96460	65.72018	602.94098	-1261.62317	20.56681	450.57941	-1271.11536	65.25281	277.89801	-1221.88171	88.51510	74.95595	-1175.56067	140.32860	38.39376	-1214.10010	-51.95031	35.18841	-1146.74133	57.24239	1687.39612	-3101.89868	1973.11438	1023.45404	-3140.71802	2012.50317	1021.86914 
